<svg width="14" height="14" viewBox="0 0 14 15" fill="none" xmlns="http://www.w3.org/2000/svg">
<path d="M13.4479 10.8883C13.3798 10.8883 11.852 10.6006 11.852 5.8939C11.852 2.56966 10.0216 0.5 6.99622 0.5C3.97083 0.5 2.14046 2.56966 2.14046 5.8939C2.14046 10.6885 0.559697 10.8883 0.567261 10.8883C0.416814 10.8883 0.272529 10.9514 0.166147 11.0638C0.0597647 11.1762 0 11.3286 0 11.4876C0 11.6465 0.0597647 11.799 0.166147 11.9114C0.272529 12.0238 0.416814 12.0869 0.567261 12.0869H4.22042C4.34669 12.7667 4.69255 13.379 5.19888 13.8192C5.7052 14.2593 6.34053 14.5 6.99622 14.5C7.65191 14.5 8.28724 14.2593 8.79356 13.8192C9.29988 13.379 9.64575 12.7667 9.77201 12.0869H13.4327C13.5832 12.0869 13.7275 12.0238 13.8339 11.9114C13.9402 11.799 14 11.6465 14 11.4876C14 11.3286 13.9402 11.1762 13.8339 11.0638C13.7275 10.9514 13.5832 10.8883 13.4327 10.8883H13.4479ZM6.99622 13.2855C6.6455 13.2848 6.30363 13.1692 6.01778 12.9545C5.73193 12.7398 5.51619 12.4366 5.40032 12.0869H8.59211C8.47625 12.4366 8.26051 12.7398 7.97466 12.9545C7.68881 13.1692 7.34694 13.2848 6.99622 13.2855ZM2.27661 10.8883C2.82118 10.0172 3.27499 8.49096 3.27499 5.8939C3.27499 3.29684 4.63641 1.69864 6.99622 1.69864C9.35602 1.69864 10.7175 3.22492 10.7175 5.8939C10.7175 8.56288 11.1713 10.0172 11.7158 10.8883H2.27661Z" fill="#1E293B"/>
</svg>
