<svg width="24" height="24" viewBox="0 0 16 19" fill="none" xmlns="http://www.w3.org/2000/svg">
<path d="M13 2.25H11.75V1C11.75 0.801088 11.671 0.610322 11.5303 0.46967C11.3897 0.329018 11.1989 0.25 11 0.25C10.8011 0.25 10.6103 0.329018 10.4697 0.46967C10.329 0.610322 10.25 0.801088 10.25 1V2.25H5.75V1C5.75 0.801088 5.67098 0.610322 5.53033 0.46967C5.38968 0.329018 5.19891 0.25 5 0.25C4.80109 0.25 4.61032 0.329018 4.46967 0.46967C4.32902 0.610322 4.25 0.801088 4.25 1V2.25H3C2.27065 2.25 1.57118 2.53973 1.05546 3.05546C0.539731 3.57118 0.25 4.27065 0.25 5V16C0.25 16.7293 0.539731 17.4288 1.05546 17.9445C1.57118 18.4603 2.27065 18.75 3 18.75H13C13.7293 18.75 14.4288 18.4603 14.9445 17.9445C15.4603 17.4288 15.75 16.7293 15.75 16V5C15.75 4.27065 15.4603 3.57118 14.9445 3.05546C14.4288 2.53973 13.7293 2.25 13 2.25ZM3 3.75H4.25V5C4.25 5.19891 4.32902 5.38968 4.46967 5.53033C4.61032 5.67098 4.80109 5.75 5 5.75C5.19891 5.75 5.38968 5.67098 5.53033 5.53033C5.67098 5.38968 5.75 5.19891 5.75 5V3.75H10.25V5C10.25 5.19891 10.329 5.38968 10.4697 5.53033C10.6103 5.67098 10.8011 5.75 11 5.75C11.1989 5.75 11.3897 5.67098 11.5303 5.53033C11.671 5.38968 11.75 5.19891 11.75 5V3.75H13C13.3315 3.75 13.6495 3.8817 13.8839 4.11612C14.1183 4.35054 14.25 4.66848 14.25 5V7.75H1.75V5C1.75 4.66848 1.8817 4.35054 2.11612 4.11612C2.35054 3.8817 2.66848 3.75 3 3.75ZM13 17.25H3C2.66848 17.25 2.35054 17.1183 2.11612 16.8839C1.8817 16.6495 1.75 16.3315 1.75 16V9.25H14.25V16C14.25 16.3315 14.1183 16.6495 13.8839 16.8839C13.6495 17.1183 13.3315 17.25 13 17.25Z" fill="#1E293B"/>
</svg>
