<svg width="24" height="24" viewBox="0 0 18 18" fill="none" xmlns="http://www.w3.org/2000/svg">
<path d="M8.99934 11.9301C8.41984 11.9301 7.85335 11.7582 7.37152 11.4363C6.88968 11.1143 6.51413 10.6567 6.29237 10.1213C6.07061 9.58595 6.01258 8.99682 6.12564 8.42846C6.23869 7.86009 6.51775 7.33801 6.92751 6.92825C7.33728 6.51848 7.85936 6.23942 8.42772 6.12637C8.99609 6.01331 9.58521 6.07134 10.1206 6.2931C10.656 6.51487 11.1136 6.89041 11.4355 7.37225C11.7575 7.85408 11.9293 8.42057 11.9293 9.00007C11.9293 9.77715 11.6206 10.5224 11.0712 11.0719C10.5217 11.6214 9.77642 11.9301 8.99934 11.9301ZM8.99934 7.57007C8.71651 7.57007 8.44003 7.65394 8.20487 7.81107C7.96971 7.9682 7.78642 8.19153 7.67819 8.45283C7.56996 8.71413 7.54164 9.00166 7.59681 9.27905C7.65199 9.55644 7.78819 9.81124 7.98817 10.0112C8.18816 10.2112 8.44297 10.3474 8.72036 10.4026C8.99775 10.4578 9.28528 10.4295 9.54657 10.3212C9.80787 10.213 10.0312 10.0297 10.1883 9.79453C10.3455 9.55937 10.4293 9.2829 10.4293 9.00007C10.4293 8.62081 10.2787 8.25708 10.0105 7.98891C9.74232 7.72073 9.3786 7.57007 8.99934 7.57007Z" fill="#1E293B"/>
<path d="M9.05977 17.75C8.76738 17.7487 8.47814 17.6896 8.20864 17.5762C7.93914 17.4628 7.6947 17.2973 7.48935 17.0892C7.284 16.881 7.12179 16.6344 7.01203 16.3634C6.90227 16.0924 6.84713 15.8024 6.84977 15.51C6.84582 15.4198 6.81651 15.3326 6.76521 15.2583C6.71392 15.184 6.64271 15.1257 6.55977 15.09C6.468 15.0479 6.36579 15.034 6.2661 15.05C6.16641 15.066 6.07371 15.1112 5.99977 15.18C5.58458 15.592 5.02469 15.8253 4.43977 15.83C3.85115 15.8338 3.28429 15.6077 2.85977 15.2C2.65355 14.9938 2.48997 14.7491 2.37837 14.4797C2.26676 14.2103 2.20932 13.9216 2.20932 13.63C2.20932 13.3384 2.26676 13.0497 2.37837 12.7803C2.48997 12.5109 2.65355 12.2662 2.85977 12.06C2.93029 11.9957 2.98094 11.9126 3.00575 11.8205C3.03056 11.7283 3.02848 11.631 2.99977 11.54C2.95104 11.4556 2.88113 11.3854 2.79695 11.3363C2.71276 11.2872 2.61722 11.2609 2.51977 11.26C1.93139 11.2577 1.3669 11.027 0.945291 10.6166C0.523685 10.2062 0.277905 9.6481 0.259766 9.06C0.261076 8.76847 0.319796 8.48004 0.432574 8.2112C0.545351 7.94236 0.709978 7.69836 0.917053 7.49314C1.12413 7.28793 1.3696 7.12551 1.63944 7.01515C1.90929 6.9048 2.19823 6.84868 2.48977 6.85C2.57996 6.84605 2.66721 6.81675 2.7415 6.76545C2.8158 6.71415 2.87412 6.64294 2.90977 6.56C2.95188 6.46823 2.96582 6.36603 2.94979 6.26633C2.93377 6.16664 2.88852 6.07395 2.81977 6C2.40772 5.58481 2.17444 5.02492 2.16977 4.44C2.16465 4.14801 2.21772 3.85792 2.32589 3.58665C2.43405 3.31538 2.59514 3.06836 2.79977 2.86C3.00592 2.65379 3.25068 2.49021 3.52006 2.3786C3.78945 2.267 4.07818 2.20955 4.36977 2.20955C4.66135 2.20955 4.95008 2.267 5.21947 2.3786C5.48885 2.49021 5.73361 2.65379 5.93976 2.86C6.01177 2.9285 6.10016 2.97735 6.19647 3.00187C6.29278 3.02638 6.39377 3.02574 6.48977 3C6.57727 2.95207 6.65145 2.88308 6.70557 2.79927C6.7597 2.71546 6.79208 2.61947 6.79977 2.52C6.79948 1.92989 7.02901 1.36287 7.4397 0.939118C7.85038 0.515367 8.40994 0.268197 8.99977 0.25C9.2913 0.252615 9.57947 0.312629 9.84781 0.426617C10.1162 0.540605 10.3594 0.706333 10.5637 0.914339C10.768 1.12234 10.9293 1.36855 11.0385 1.63891C11.1476 1.90926 11.2024 2.19846 11.1998 2.49C11.2036 2.5815 11.2314 2.67038 11.2806 2.74764C11.3298 2.8249 11.3985 2.88781 11.4798 2.93C11.568 2.96241 11.6636 2.96927 11.7556 2.94982C11.8476 2.93036 11.9322 2.88537 11.9998 2.82C12.415 2.40796 12.9748 2.17467 13.5598 2.17C13.8523 2.16083 14.1435 2.21204 14.4154 2.32044C14.6872 2.42883 14.9338 2.59208 15.1398 2.8C15.346 3.00615 15.5096 3.25091 15.6212 3.5203C15.7328 3.78968 15.7902 4.07841 15.7902 4.37C15.7902 4.66159 15.7328 4.95032 15.6212 5.2197C15.5096 5.48909 15.346 5.73385 15.1398 5.94C15.0764 6.01489 15.0331 6.10463 15.0139 6.20082C14.9946 6.29701 15.0001 6.3965 15.0298 6.49C15.0777 6.57751 15.1467 6.65168 15.2305 6.70581C15.3143 6.75994 15.4103 6.79231 15.5098 6.8C16.0947 6.80745 16.6541 7.04041 17.0714 7.45029C17.4888 7.86017 17.7318 8.41533 17.7498 9C17.7472 9.29154 17.6871 9.57971 17.5731 9.84805C17.4592 10.1164 17.2934 10.3597 17.0854 10.5639C16.8774 10.7682 16.6312 10.9296 16.3609 11.0387C16.0905 11.1478 15.8013 11.2026 15.5098 11.2C15.4183 11.2038 15.3294 11.2317 15.2521 11.2809C15.1749 11.33 15.112 11.3987 15.0698 11.48C15.0374 11.5683 15.0305 11.6638 15.0499 11.7558C15.0694 11.8478 15.1144 11.9324 15.1798 12C15.5918 12.4152 15.8251 12.9751 15.8298 13.56C15.8349 13.852 15.7818 14.1421 15.6736 14.4133C15.5655 14.6846 15.4044 14.9316 15.1998 15.14C14.9936 15.3462 14.7489 15.5098 14.4795 15.6214C14.2101 15.733 13.9214 15.7904 13.6298 15.7904C13.3382 15.7904 13.0494 15.733 12.7801 15.6214C12.5107 15.5098 12.2659 15.3462 12.0598 15.14C11.9922 15.0746 11.9076 15.0296 11.8156 15.0102C11.7236 14.9907 11.628 14.9976 11.5398 15.03C11.4554 15.0787 11.3851 15.1486 11.336 15.2328C11.2869 15.317 11.2606 15.4125 11.2598 15.51C11.2523 16.0949 11.0194 16.6544 10.6095 17.0717C10.1996 17.489 9.64444 17.732 9.05977 17.75ZM6.34977 13.54C6.615 13.5369 6.87773 13.5915 7.11977 13.7C7.47694 13.8489 7.78326 14.0982 8.00159 14.4177C8.21991 14.7372 8.34085 15.1131 8.34977 15.5C8.347 15.6929 8.41967 15.8792 8.5523 16.0193C8.68492 16.1594 8.86701 16.2422 9.05977 16.25C9.25249 16.2348 9.43217 16.1466 9.56222 16.0036C9.69227 15.8605 9.76291 15.6733 9.75977 15.48C9.76214 15.0918 9.87417 14.7121 10.0829 14.3848C10.2917 14.0575 10.5887 13.7958 10.9398 13.63C11.3049 13.4781 11.7069 13.4379 12.095 13.5144C12.483 13.5909 12.8396 13.7808 13.1198 14.06C13.2524 14.1926 13.4322 14.2671 13.6198 14.2671C13.8073 14.2671 13.9872 14.1926 14.1198 14.06C14.2524 13.9274 14.3269 13.7475 14.3269 13.56C14.3269 13.3725 14.2524 13.1926 14.1198 13.06C13.8423 12.7788 13.6543 12.4216 13.5795 12.0336C13.5048 11.6456 13.5466 11.2442 13.6998 10.88C13.8575 10.5291 14.1131 10.2311 14.4359 10.0218C14.7587 9.81255 15.135 9.7008 15.5198 9.7C15.71 9.70277 15.8938 9.63115 16.032 9.5004C16.1703 9.36965 16.252 9.1901 16.2598 9C16.2469 8.80637 16.1595 8.62527 16.0159 8.49473C15.8723 8.3642 15.6837 8.2944 15.4898 8.3C15.0983 8.28936 14.7176 8.16947 14.3907 7.95389C14.0638 7.73831 13.8037 7.43562 13.6398 7.08C13.4901 6.71114 13.4511 6.30669 13.5274 5.91602C13.6038 5.52535 13.7922 5.16536 14.0698 4.88C14.1354 4.81434 14.1875 4.73639 14.223 4.6506C14.2586 4.56481 14.2769 4.47286 14.2769 4.38C14.2769 4.28714 14.2586 4.19519 14.223 4.1094C14.1875 4.02361 14.1354 3.94566 14.0698 3.88C14.0041 3.81434 13.9262 3.76225 13.8404 3.72672C13.7546 3.69118 13.6626 3.67289 13.5698 3.67289C13.4769 3.67289 13.385 3.69118 13.2992 3.72672C13.2134 3.76225 13.1354 3.81434 13.0698 3.88C12.7886 4.14113 12.4383 4.31587 12.0606 4.38337C11.6828 4.45088 11.2937 4.4083 10.9395 4.26072C10.5853 4.11314 10.281 3.86679 10.063 3.55105C9.84493 3.2353 9.72232 2.86351 9.70977 2.48C9.71253 2.28976 9.64091 2.10595 9.51016 1.96773C9.37942 1.82951 9.19987 1.7478 9.00977 1.74C8.81614 1.75286 8.63503 1.84026 8.5045 1.98385C8.37396 2.12744 8.30416 2.31603 8.30977 2.51C8.29912 2.90145 8.17924 3.28212 7.96366 3.60903C7.74807 3.93593 7.44538 4.19605 7.08977 4.36C6.72091 4.50966 6.31646 4.54869 5.92579 4.47233C5.53512 4.39598 5.17513 4.20753 4.88977 3.93C4.8241 3.86434 4.74615 3.81225 4.66036 3.77672C4.57457 3.74118 4.48262 3.72289 4.38977 3.72289C4.29691 3.72289 4.20496 3.74118 4.11917 3.77672C4.03338 3.81225 3.95543 3.86434 3.88977 3.93C3.8241 3.99566 3.77202 4.07361 3.73648 4.1594C3.70095 4.24519 3.68266 4.33714 3.68266 4.43C3.68266 4.52286 3.70095 4.61481 3.73648 4.7006C3.77202 4.78639 3.8241 4.86434 3.88977 4.93C4.16561 5.21235 4.35173 5.57002 4.42469 5.95795C4.49765 6.34588 4.45418 6.74673 4.29977 7.11C4.15089 7.46718 3.90159 7.7735 3.58209 7.99182C3.2626 8.21014 2.88663 8.33109 2.49977 8.34C2.30687 8.33724 2.12052 8.40991 1.98043 8.54253C1.84033 8.67515 1.75757 8.85724 1.74977 9.05C1.765 9.24273 1.85312 9.42241 1.99617 9.55245C2.13922 9.6825 2.32646 9.75315 2.51977 9.75C2.90799 9.75237 3.28764 9.8644 3.61495 10.0732C3.94227 10.282 4.20393 10.579 4.36977 10.93C4.52167 11.2952 4.5619 11.6972 4.48536 12.0852C4.40883 12.4732 4.21896 12.8299 3.93977 13.11C3.8741 13.1757 3.82202 13.2536 3.78648 13.3394C3.75095 13.4252 3.73266 13.5171 3.73266 13.61C3.73266 13.7029 3.75095 13.7948 3.78648 13.8806C3.82202 13.9664 3.8741 14.0443 3.93977 14.11C4.00543 14.1757 4.08338 14.2277 4.16917 14.2633C4.25496 14.2988 4.34691 14.3171 4.43977 14.3171C4.53262 14.3171 4.62457 14.2988 4.71036 14.2633C4.79615 14.2277 4.8741 14.1757 4.93977 14.11C5.31986 13.7471 5.82427 13.5432 6.34977 13.54Z" fill="#1E293B"/>
</svg>
