<svg width="24" height="24" viewBox="0 0 24 24" fill="none" xmlns="http://www.w3.org/2000/svg">
<path d="M4.25024 17.3099C4.12917 17.312 4.00939 17.2847 3.90115 17.2305C3.7929 17.1762 3.69941 17.0965 3.62865 16.9982C3.5579 16.9 3.51199 16.786 3.49486 16.6662C3.47772 16.5463 3.48986 16.4241 3.53024 16.3099L4.78024 12.1899C4.52461 11.4876 4.38937 10.7472 4.38024 9.9999C4.37826 9.13731 4.55178 8.28333 4.89024 7.4899C5.30053 6.51274 5.94423 5.65112 6.76492 4.98056C7.58561 4.31 8.55825 3.85097 9.59759 3.6437C10.6369 3.43642 11.7112 3.48723 12.7264 3.79167C13.7415 4.09611 14.6665 4.64488 15.4202 5.3899C16.0051 5.98413 16.4732 6.68291 16.8002 7.4499C17.1325 8.24151 17.3036 9.0914 17.3036 9.9499C17.3036 10.8084 17.1325 11.6583 16.8002 12.4499C16.4732 13.2169 16.0051 13.9157 15.4202 14.5099C14.5434 15.3852 13.4339 15.9908 12.2234 16.2549C11.0129 16.519 9.75201 16.4305 8.59024 15.9999L4.47024 17.2799C4.39858 17.2997 4.32458 17.3098 4.25024 17.3099ZM10.8402 4.9999C10.1771 4.99798 9.52056 5.13065 8.91024 5.3899C7.7279 5.88887 6.78268 6.82335 6.27024 7.9999C6.01308 8.61261 5.88064 9.27042 5.88064 9.9349C5.88064 10.5994 6.01308 11.2572 6.27024 11.8699C6.32981 12.0347 6.32981 12.2151 6.27024 12.3799L5.35024 15.3799L8.35024 14.4599C8.51502 14.4003 8.69546 14.4003 8.86024 14.4599C10.0745 14.9642 11.4385 14.9699 12.657 14.4758C13.8754 13.9817 14.8502 13.0275 15.3702 11.8199C15.6629 11.0719 15.771 10.2644 15.6854 9.4658C15.5999 8.66717 15.3232 7.90091 14.8788 7.23186C14.4344 6.5628 13.8354 6.01066 13.1324 5.62215C12.4294 5.23364 11.6432 5.0202 10.8402 4.9999Z" fill="#1E293B"/>
<path d="M19.7506 20.4998C19.6776 20.5096 19.6037 20.5096 19.5306 20.4998L15.4106 19.2498C13.8628 19.8343 12.1491 19.7986 10.6269 19.1502C9.10475 18.5019 7.89165 17.2909 7.24065 15.7698C7.19615 15.6798 7.1707 15.5816 7.16588 15.4813C7.16106 15.381 7.17698 15.2808 7.21265 15.187C7.24831 15.0931 7.30295 15.0076 7.37315 14.9359C7.44336 14.8641 7.52761 14.8076 7.62065 14.7698C7.71113 14.7282 7.80898 14.7051 7.9085 14.7017C8.00803 14.6983 8.10723 14.7148 8.20031 14.7502C8.2934 14.7856 8.37851 14.8391 8.45067 14.9077C8.52284 14.9763 8.58062 15.0586 8.62065 15.1498C8.85834 15.7163 9.1972 16.2347 9.62065 16.6798C10.3218 17.3733 11.2124 17.8439 12.1803 18.0325C13.1483 18.2211 14.1504 18.1193 15.0606 17.7398C15.2254 17.6802 15.4059 17.6802 15.5706 17.7398L18.5706 18.6598L17.6506 15.6598C17.5911 15.495 17.5911 15.3146 17.6506 15.1498C17.9099 14.5395 18.0426 13.8829 18.0406 13.2198C18.043 12.5679 17.9161 11.9221 17.6672 11.3196C17.4183 10.7171 17.0524 10.17 16.5906 9.70981C16.3883 9.45416 16.1642 9.2166 15.9206 8.99981C15.8332 8.94736 15.7574 8.87762 15.6978 8.79487C15.6383 8.71212 15.5962 8.61809 15.5742 8.51852C15.5522 8.41896 15.5507 8.31596 15.5699 8.21581C15.589 8.11566 15.6284 8.02047 15.6856 7.93605C15.7428 7.85164 15.8166 7.77977 15.9025 7.72483C15.9884 7.6699 16.0846 7.63306 16.1852 7.61657C16.2858 7.60007 16.3887 7.60427 16.4877 7.6289C16.5866 7.65353 16.6795 7.69807 16.7606 7.75981C17.1184 7.99073 17.4532 8.25526 17.7606 8.54981C18.3488 9.14141 18.8173 9.84084 19.1406 10.6098C19.4799 11.4065 19.6534 12.2639 19.6506 13.1298C19.6486 13.8973 19.5132 14.6586 19.2506 15.3798L20.5006 19.4998C20.541 19.614 20.5532 19.7362 20.536 19.8561C20.5189 19.9759 20.473 20.0899 20.4022 20.1882C20.3315 20.2864 20.238 20.3661 20.1297 20.4204C20.0215 20.4746 19.9017 20.5019 19.7806 20.4998H19.7506Z" fill="#1E293B"/>
</svg>
