<svg width="19" height="15" viewBox="0 0 19 15" fill="none" xmlns="http://www.w3.org/2000/svg">
<path d="M18.1902 7.2C18.0702 6.94 15.3302 0.750004 9.50023 0.750004C8.942 0.749417 8.38537 0.809774 7.84023 0.930004C7.66068 0.985586 7.50853 1.10656 7.41393 1.26899C7.31933 1.43141 7.28916 1.62343 7.3294 1.80704C7.36965 1.99064 7.47736 2.15244 7.63123 2.26041C7.78509 2.36837 7.97389 2.41462 8.16023 2.39C8.60098 2.29789 9.04997 2.25098 9.50023 2.25C13.6802 2.25 16.0802 6.35 16.6702 7.5C16.3105 8.2028 15.8889 8.87212 15.4102 9.5C15.3243 9.6107 15.271 9.74327 15.2566 9.88267C15.2421 10.0221 15.267 10.1627 15.3285 10.2887C15.3899 10.4147 15.4854 10.5209 15.6041 10.5954C15.7229 10.6699 15.8601 10.7096 16.0002 10.71C16.1141 10.7096 16.2265 10.6833 16.3287 10.6331C16.4309 10.5828 16.5204 10.51 16.5902 10.42C17.2201 9.62016 17.7569 8.75123 18.1902 7.83C18.234 7.73077 18.2567 7.62348 18.2567 7.515C18.2567 7.40653 18.234 7.29924 18.1902 7.2Z" fill="#64748B"/>
<path d="M4.03008 0.969968C3.8879 0.837488 3.69986 0.765365 3.50556 0.768794C3.31125 0.772222 3.12587 0.850934 2.98846 0.988347C2.85104 1.12576 2.77233 1.31114 2.7689 1.50545C2.76547 1.69975 2.8376 1.88779 2.97008 2.02997L3.89008 2.94997C2.58736 4.14838 1.5398 5.59728 0.810078 7.20997C0.770749 7.30335 0.750488 7.40365 0.750488 7.50497C0.750488 7.60629 0.770749 7.70659 0.810078 7.79997C0.930078 8.05997 3.67008 14.25 9.50008 14.25C11.0594 14.2577 12.5864 13.8055 13.8901 12.95L14.9701 14.03C15.1107 14.1704 15.3013 14.2493 15.5001 14.2493C15.6988 14.2493 15.8895 14.1704 16.0301 14.03C16.1705 13.8893 16.2494 13.6987 16.2494 13.5C16.2494 13.3012 16.1705 13.1106 16.0301 12.97L4.03008 0.969968ZM7.86008 6.96997L10.0701 9.18997C9.76034 9.29264 9.42861 9.30967 9.10999 9.23926C8.79136 9.16885 8.4977 9.01361 8.26008 8.78997C8.01808 8.55139 7.85124 8.24716 7.78015 7.91485C7.70907 7.58253 7.73686 7.23667 7.86008 6.91997V6.96997ZM9.50008 12.75C5.31008 12.75 2.92008 8.63997 2.33008 7.49997C2.98276 6.18628 3.87077 5.00339 4.95008 4.00997L6.74008 5.79997C6.35591 6.42088 6.19272 7.15335 6.27699 7.87862C6.36125 8.60389 6.68802 9.27944 7.20431 9.79573C7.72061 10.312 8.39615 10.6388 9.12143 10.7231C9.8467 10.8073 10.5792 10.6441 11.2001 10.26L12.8101 11.87C11.8053 12.4539 10.6622 12.7578 9.50008 12.75Z" fill="#1E293B"/>
</svg>
