<svg width="19" height="15" viewBox="0 0 19 15" fill="none" xmlns="http://www.w3.org/2000/svg">
<path d="M9.5 14.25C3.67 14.25 0.93 8.06 0.81 7.8C0.770392 7.70494 0.75 7.60298 0.75 7.5C0.75 7.39702 0.770392 7.29506 0.81 7.2C0.93 6.94 3.67 0.75 9.5 0.75C15.33 0.75 18.07 6.94 18.19 7.2C18.2296 7.29506 18.25 7.39702 18.25 7.5C18.25 7.60298 18.2296 7.70494 18.19 7.8C18.07 8.06 15.33 14.25 9.5 14.25ZM2.33 7.5C2.92 8.65 5.33 12.75 9.5 12.75C13.67 12.75 16.08 8.65 16.67 7.5C16.08 6.35 13.67 2.25 9.5 2.25C5.33 2.25 2.92 6.35 2.33 7.5Z" fill="#1E293B"/>
<path d="M9.5 10.75C8.85721 10.75 8.22886 10.5594 7.6944 10.2023C7.15994 9.84516 6.74338 9.33758 6.49739 8.74372C6.25141 8.14986 6.18705 7.4964 6.31245 6.86596C6.43785 6.23552 6.74738 5.65643 7.2019 5.2019C7.65643 4.74738 8.23552 4.43785 8.86596 4.31245C9.4964 4.18705 10.1499 4.25141 10.7437 4.49739C11.3376 4.74338 11.8452 5.15994 12.2023 5.6944C12.5594 6.22886 12.75 6.85721 12.75 7.5C12.7474 8.36114 12.4041 9.18626 11.7952 9.79518C11.1863 10.4041 10.3611 10.7474 9.5 10.75ZM9.5 5.75C9.15388 5.75 8.81554 5.85264 8.52775 6.04493C8.23997 6.23722 8.01567 6.51054 7.88321 6.83031C7.75076 7.15008 7.7161 7.50194 7.78363 7.84141C7.85115 8.18088 8.01782 8.4927 8.26256 8.73744C8.50731 8.98218 8.81913 9.14885 9.15859 9.21638C9.49806 9.2839 9.84993 9.24924 10.1697 9.11679C10.4895 8.98434 10.7628 8.76004 10.9551 8.47225C11.1474 8.18446 11.25 7.84612 11.25 7.5C11.2474 7.03668 11.0622 6.59309 10.7345 6.26547C10.4069 5.93784 9.96332 5.75263 9.5 5.75Z" fill="#1E293B"/>
</svg>
